<svg width="176" height="82" viewBox="0 0 176 82" fill="none" xmlns="http://www.w3.org/2000/svg">
<g opacity="0.55">
<path d="M7.014 2.255H168.471C170.331 2.255 172.115 2.99397 173.431 4.30935C174.746 5.62473 175.485 7.40877 175.485 9.269V74.269C175.485 76.1292 174.746 77.9133 173.431 79.2286C172.115 80.544 170.331 81.283 168.471 81.283H7.014C6.09257 81.283 5.18017 81.1014 4.32894 80.7487C3.4777 80.396 2.7043 79.879 2.05294 79.2272C1.40158 78.5755 0.885013 77.8018 0.532762 76.9504C0.18051 76.0989 -0.000524339 75.1864 1.14068e-06 74.265V9.265C0.00106161 7.40546 0.740503 5.62245 2.05577 4.30794C3.37103 2.99342 5.15447 2.255 7.014 2.255Z" fill="#333842"/>
<path d="M75.3507 25.3483L49.3447 32.9742C44.8945 34.2791 42.3449 38.9446 43.6498 43.3947L52.4707 73.4761C53.7757 77.9262 58.4411 80.4759 62.8912 79.171L88.8972 71.5451C93.3474 70.2402 95.897 65.5748 94.5921 61.1246L85.7712 31.0432C84.4662 26.5931 79.8008 24.0434 75.3507 25.3483Z" fill="#9F9F9F"/>
<path d="M124.647 16.8338L78.3988 3.29156C75.9628 2.57825 73.4097 3.97478 72.6964 6.41079L57.9382 56.8115C57.2249 59.2475 58.6214 61.8005 61.0574 62.5138L107.305 76.0561C109.741 76.7694 112.295 75.3729 113.008 72.9369L127.766 22.5362C128.479 20.1002 127.083 17.5471 124.647 16.8338Z" fill="url(#paint0_linear_98_7)" stroke="white" stroke-width="5.398" stroke-linecap="round" stroke-linejoin="round"/>
<path d="M121.799 21.8527L78.4979 9.17343L66.88 48.8494L110.181 61.5287L121.799 21.8527Z" fill="#CCCCCC" stroke="white" stroke-width="2.257" stroke-linecap="round" stroke-linejoin="round"/>
<path d="M121.799 21.8527L78.4979 9.17343L73.0762 27.689L116.377 40.3682L121.799 21.8527Z" fill="white" stroke="white" stroke-width="2.257" stroke-linecap="round" stroke-linejoin="round"/>
<path fill-rule="evenodd" clip-rule="evenodd" d="M75.7211 28.4635L80.495 24.7358L86.9979 22.3167L87.9184 24.365L90.1129 21.3043L90.9126 21.253L92.8195 19.1105L104.043 39.6283" fill="#CCCCCC"/>
<path d="M75.7211 28.4635L80.495 24.7358L86.9979 22.3167L87.9184 24.365L90.1129 21.3043L90.9126 21.253L92.8195 19.1105L104.043 39.6283" stroke="white" stroke-width="2.257" stroke-linecap="round" stroke-linejoin="round"/>
<path fill-rule="evenodd" clip-rule="evenodd" d="M92.8195 19.1105C92.7551 20.6685 92.6468 22.2245 92.4947 23.7783C92.3776 24.9562 92.2353 26.1302 92.0677 27.3003L90.3036 26.1012L86.9979 22.3167L86.2686 26.5473L85.4864 28.6919L85.5889 31.6301L92.3454 32.4832L100.303 32.7897L98.0861 24.7279L96.8455 25.7942L95.0252 23.1429L92.8195 19.1105Z" fill="#B3B3B3" stroke="white" stroke-width="2.257" stroke-linecap="round" stroke-linejoin="round"/>
<path fill-rule="evenodd" clip-rule="evenodd" d="M85.5271 34.2076L94.6695 29.7595L96.5508 29.3841L99.78 26.0992L102.625 24.8546L113.849 45.3724" fill="#CCCCCC"/>
<path d="M85.5271 34.2076L94.6695 29.7595L96.5508 29.3841L99.78 26.0992L102.625 24.8546L113.849 45.3724" stroke="white" stroke-width="2.257" stroke-linecap="round" stroke-linejoin="round"/>
<path fill-rule="evenodd" clip-rule="evenodd" d="M102.625 24.8546L103.703 32.9164L102.148 38.2265L103.626 40.5222C104.37 40.1212 105.176 39.8489 106.01 39.7168C107.511 39.5887 109.021 39.5945 110.521 39.7341C111.133 39.7762 111.747 39.7003 112.33 39.5104C112.476 39.4552 112.616 39.3876 112.751 39.3085L110.108 38.5346L107.58 33.9119L106.214 28.823L105.082 29.3375L102.625 24.8546Z" fill="#B3B3B3" stroke="white" stroke-width="2.257" stroke-linecap="round" stroke-linejoin="round"/>
<path fill-rule="evenodd" clip-rule="evenodd" d="M80.1057 52.7222C80.317 51.865 79.783 50.9417 82.4072 50.4598C85.627 49.8688 94.4345 50.543 97.3715 49.0992C99.5449 48.0288 92.1358 43.9598 94.0453 42.4703C94.9124 41.7937 99.7642 42.2339 102.07 41.9223C104.255 41.6242 103.916 40.5675 105.612 40.09C107.252 39.6301 112.15 40.112 112.753 39.3071C111.563 39.9662 106.157 39.3294 104.043 39.6283C101.812 39.9442 101.636 40.8314 98.9236 40.952C96.0013 41.0821 90.5331 40.4624 89.081 40.9875C86.0375 42.0938 92.1126 45.9536 88.961 46.6958C84.6913 47.7015 74.676 46.658 70.3015 46.9754C67.2767 47.1994 67.3363 47.8108 66.88 48.8494" fill="white"/>
<path d="M80.1057 52.7222C80.317 51.865 79.783 50.9417 82.4072 50.4598C85.627 49.8688 94.4345 50.543 97.3715 49.0992C99.5449 48.0288 92.1358 43.9598 94.0453 42.4703C94.9124 41.7937 99.7642 42.2339 102.07 41.9223C104.255 41.6242 103.916 40.5675 105.612 40.09C107.252 39.6301 112.15 40.112 112.753 39.3071C111.563 39.9662 106.157 39.3294 104.043 39.6283C101.812 39.9442 101.636 40.8314 98.9236 40.952C96.0013 41.0821 90.5331 40.4624 89.081 40.9875C86.0375 42.0938 92.1126 45.9536 88.961 46.6958C84.6913 47.7015 74.676 46.658 70.3015 46.9754C67.2767 47.1994 67.3363 47.8108 66.88 48.8494" stroke="white" stroke-width="2.257" stroke-linecap="round" stroke-linejoin="round"/>
</g>
<defs>
<linearGradient id="paint0_linear_98_7" x1="130.9" y1="21.4299" x2="114.668" y2="73.3226" gradientUnits="userSpaceOnUse">
<stop stop-color="#C2C2C2"/>
<stop offset="1" stop-color="#9F9F9F"/>
</linearGradient>
</defs>
</svg>
